<svg width="168" height="36" viewBox="0 0 168 36" fill="none" xmlns="http://www.w3.org/2000/svg">
<path d="M37.4277 16.8105H38.6494C39.417 16.7988 40.0205 16.5967 40.46 16.2041C40.8994 15.8115 41.1191 15.2812 41.1191 14.6133C41.1191 13.1133 40.3721 12.3633 38.8779 12.3633C38.1748 12.3633 37.6123 12.5654 37.1904 12.9697C36.7744 13.3682 36.5664 13.8984 36.5664 14.5605H34.9404C34.9404 13.5469 35.3096 12.7061 36.0479 12.0381C36.792 11.3643 37.7354 11.0273 38.8779 11.0273C40.085 11.0273 41.0312 11.3467 41.7168 11.9854C42.4023 12.624 42.7451 13.5117 42.7451 14.6484C42.7451 15.2051 42.5635 15.7441 42.2002 16.2656C41.8428 16.7871 41.3535 17.1768 40.7324 17.4346C41.4355 17.6572 41.9775 18.0264 42.3584 18.542C42.7451 19.0576 42.9385 19.6875 42.9385 20.4316C42.9385 21.5801 42.5635 22.4912 41.8135 23.165C41.0635 23.8389 40.0879 24.1758 38.8867 24.1758C37.6855 24.1758 36.707 23.8506 35.9512 23.2002C35.2012 22.5498 34.8262 21.6914 34.8262 20.625H36.4609C36.4609 21.2988 36.6807 21.8379 37.1201 22.2422C37.5596 22.6465 38.1484 22.8486 38.8867 22.8486C39.6719 22.8486 40.2725 22.6436 40.6885 22.2334C41.1045 21.8232 41.3125 21.2344 41.3125 20.4668C41.3125 19.7227 41.084 19.1514 40.627 18.7529C40.1699 18.3545 39.5107 18.1494 38.6494 18.1377H37.4277V16.8105ZM53.1953 18.542C53.1953 20.4463 52.8701 21.8613 52.2197 22.7871C51.5693 23.7129 50.5527 24.1758 49.1699 24.1758C47.8047 24.1758 46.7939 23.7246 46.1377 22.8223C45.4814 21.9141 45.1416 20.5605 45.1182 18.7617V16.5908C45.1182 14.71 45.4434 13.3125 46.0938 12.3984C46.7441 11.4844 47.7637 11.0273 49.1523 11.0273C50.5293 11.0273 51.543 11.4697 52.1934 12.3545C52.8438 13.2334 53.1777 14.5928 53.1953 16.4326V18.542ZM51.5693 16.3184C51.5693 14.9414 51.376 13.9395 50.9893 13.3125C50.6025 12.6797 49.9902 12.3633 49.1523 12.3633C48.3203 12.3633 47.7139 12.6768 47.333 13.3037C46.9521 13.9307 46.7559 14.8945 46.7441 16.1953V18.7969C46.7441 20.1797 46.9434 21.2021 47.3418 21.8643C47.7461 22.5205 48.3555 22.8486 49.1699 22.8486C49.9727 22.8486 50.5674 22.5381 50.9541 21.917C51.3467 21.2959 51.5518 20.3174 51.5693 18.9814V16.3184ZM59.5146 19.166C59.5146 17.707 59.8604 16.5352 60.5518 15.6504C61.2432 14.7598 62.1484 14.3145 63.2676 14.3145C64.3809 14.3145 65.2627 14.6953 65.9131 15.457V10.5H67.5391V24H66.0449L65.9658 22.9805C65.3154 23.7773 64.4102 24.1758 63.25 24.1758C62.1484 24.1758 61.249 23.7246 60.5518 22.8223C59.8604 21.9199 59.5146 20.7422 59.5146 19.2891V19.166ZM61.1406 19.3506C61.1406 20.4287 61.3633 21.2725 61.8086 21.8818C62.2539 22.4912 62.8691 22.7959 63.6543 22.7959C64.6855 22.7959 65.4385 22.333 65.9131 21.4072V17.0391C65.4268 16.1426 64.6797 15.6943 63.6719 15.6943C62.875 15.6943 62.2539 16.002 61.8086 16.6172C61.3633 17.2324 61.1406 18.1436 61.1406 19.3506ZM75.9414 24C75.8477 23.8125 75.7715 23.4785 75.7129 22.998C74.957 23.7832 74.0547 24.1758 73.0059 24.1758C72.0684 24.1758 71.2979 23.9121 70.6943 23.3848C70.0967 22.8516 69.7979 22.1777 69.7979 21.3633C69.7979 20.373 70.1729 19.6055 70.9229 19.0605C71.6787 18.5098 72.7393 18.2344 74.1045 18.2344H75.6865V17.4873C75.6865 16.9189 75.5166 16.4678 75.1768 16.1338C74.8369 15.7939 74.3359 15.624 73.6738 15.624C73.0938 15.624 72.6074 15.7705 72.2148 16.0635C71.8223 16.3564 71.626 16.7109 71.626 17.127H69.9912C69.9912 16.6523 70.1582 16.1953 70.4922 15.7559C70.832 15.3105 71.2891 14.959 71.8633 14.7012C72.4434 14.4434 73.0791 14.3145 73.7705 14.3145C74.8662 14.3145 75.7246 14.5898 76.3457 15.1406C76.9668 15.6855 77.2891 16.4385 77.3125 17.3994V21.7764C77.3125 22.6494 77.4238 23.3438 77.6465 23.8594V24H75.9414ZM73.2432 22.7607C73.7529 22.7607 74.2363 22.6289 74.6934 22.3652C75.1504 22.1016 75.4814 21.7588 75.6865 21.3369V19.3857H74.4121C72.4199 19.3857 71.4238 19.9688 71.4238 21.1348C71.4238 21.6445 71.5938 22.043 71.9336 22.3301C72.2734 22.6172 72.71 22.7607 73.2432 22.7607ZM82.832 21.6182L85.0469 14.4902H86.7871L82.9639 25.4678C82.3721 27.0498 81.4316 27.8408 80.1426 27.8408L79.835 27.8145L79.2285 27.7002V26.3818L79.668 26.417C80.2188 26.417 80.6465 26.3057 80.9512 26.083C81.2617 25.8604 81.5166 25.4531 81.7158 24.8613L82.0762 23.8945L78.6836 14.4902H80.459L82.832 21.6182ZM93.7832 21.4775C93.7832 21.0381 93.6162 20.6982 93.2822 20.458C92.9541 20.2119 92.377 20.001 91.5508 19.8252C90.7305 19.6494 90.0771 19.4385 89.5908 19.1924C89.1104 18.9463 88.7529 18.6533 88.5186 18.3135C88.29 17.9736 88.1758 17.5693 88.1758 17.1006C88.1758 16.3213 88.5039 15.6621 89.1602 15.123C89.8223 14.584 90.666 14.3145 91.6914 14.3145C92.7695 14.3145 93.6426 14.5928 94.3105 15.1494C94.9844 15.7061 95.3213 16.418 95.3213 17.2852H93.6865C93.6865 16.8398 93.4961 16.4561 93.1152 16.1338C92.7402 15.8115 92.2656 15.6504 91.6914 15.6504C91.0996 15.6504 90.6367 15.7793 90.3027 16.0371C89.9688 16.2949 89.8018 16.6318 89.8018 17.0479C89.8018 17.4404 89.957 17.7363 90.2676 17.9355C90.5781 18.1348 91.1377 18.3252 91.9463 18.5068C92.7607 18.6885 93.4199 18.9053 93.9238 19.1572C94.4277 19.4092 94.7998 19.7139 95.04 20.0713C95.2861 20.4229 95.4092 20.8535 95.4092 21.3633C95.4092 22.2129 95.0693 22.8955 94.3896 23.4111C93.71 23.9209 92.8281 24.1758 91.7441 24.1758C90.9824 24.1758 90.3086 24.041 89.7227 23.7715C89.1367 23.502 88.6768 23.127 88.3428 22.6465C88.0146 22.1602 87.8506 21.6357 87.8506 21.0732H89.4766C89.5059 21.6182 89.7227 22.0518 90.127 22.374C90.5371 22.6904 91.0762 22.8486 91.7441 22.8486C92.3594 22.8486 92.8516 22.7256 93.2207 22.4795C93.5957 22.2275 93.7832 21.8936 93.7832 21.4775ZM102.792 24V15.7471H101.289V14.4902H102.792V13.5146C102.792 12.4951 103.064 11.707 103.609 11.1504C104.154 10.5938 104.925 10.3154 105.921 10.3154C106.296 10.3154 106.668 10.3652 107.037 10.4648L106.949 11.7832C106.674 11.7305 106.381 11.7041 106.07 11.7041C105.543 11.7041 105.136 11.8594 104.849 12.1699C104.562 12.4746 104.418 12.9141 104.418 13.4883V14.4902H106.448V15.7471H104.418V24H102.792ZM112.847 15.9492C112.601 15.9082 112.334 15.8877 112.047 15.8877C110.98 15.8877 110.257 16.3418 109.876 17.25V24H108.25V14.4902H109.832L109.858 15.5889C110.392 14.7393 111.147 14.3145 112.126 14.3145C112.442 14.3145 112.683 14.3555 112.847 14.4375V15.9492ZM118.12 24.1758C116.831 24.1758 115.782 23.7539 114.974 22.9102C114.165 22.0605 113.761 20.9268 113.761 19.5088V19.21C113.761 18.2666 113.939 17.4258 114.297 16.6875C114.66 15.9434 115.164 15.3633 115.809 14.9473C116.459 14.5254 117.162 14.3145 117.918 14.3145C119.154 14.3145 120.115 14.7217 120.801 15.5361C121.486 16.3506 121.829 17.5166 121.829 19.0342V19.7109H115.387C115.41 20.6484 115.683 21.4072 116.204 21.9873C116.731 22.5615 117.399 22.8486 118.208 22.8486C118.782 22.8486 119.269 22.7314 119.667 22.4971C120.065 22.2627 120.414 21.9521 120.713 21.5654L121.706 22.3389C120.909 23.5635 119.714 24.1758 118.12 24.1758ZM117.918 15.6504C117.262 15.6504 116.711 15.8906 116.266 16.3711C115.82 16.8457 115.545 17.5137 115.439 18.375H120.203V18.252C120.156 17.4258 119.934 16.7871 119.535 16.3359C119.137 15.8789 118.598 15.6504 117.918 15.6504ZM127.665 24.1758C126.376 24.1758 125.327 23.7539 124.519 22.9102C123.71 22.0605 123.306 20.9268 123.306 19.5088V19.21C123.306 18.2666 123.484 17.4258 123.842 16.6875C124.205 15.9434 124.709 15.3633 125.354 14.9473C126.004 14.5254 126.707 14.3145 127.463 14.3145C128.699 14.3145 129.66 14.7217 130.346 15.5361C131.031 16.3506 131.374 17.5166 131.374 19.0342V19.7109H124.932C124.955 20.6484 125.228 21.4072 125.749 21.9873C126.276 22.5615 126.944 22.8486 127.753 22.8486C128.327 22.8486 128.813 22.7314 129.212 22.4971C129.61 22.2627 129.959 21.9521 130.258 21.5654L131.251 22.3389C130.454 23.5635 129.259 24.1758 127.665 24.1758ZM127.463 15.6504C126.807 15.6504 126.256 15.8906 125.811 16.3711C125.365 16.8457 125.09 17.5137 124.984 18.375H129.748V18.252C129.701 17.4258 129.479 16.7871 129.08 16.3359C128.682 15.8789 128.143 15.6504 127.463 15.6504ZM139.935 12.1875V14.4902H141.71V15.7471H139.935V21.6445C139.935 22.0254 140.014 22.3125 140.172 22.5059C140.33 22.6934 140.6 22.7871 140.98 22.7871C141.168 22.7871 141.426 22.752 141.754 22.6816V24C141.326 24.1172 140.91 24.1758 140.506 24.1758C139.779 24.1758 139.231 23.9561 138.862 23.5166C138.493 23.0771 138.309 22.4531 138.309 21.6445V15.7471H136.577V14.4902H138.309V12.1875H139.935ZM148.214 15.9492C147.968 15.9082 147.701 15.8877 147.414 15.8877C146.348 15.8877 145.624 16.3418 145.243 17.25V24H143.617V14.4902H145.199L145.226 15.5889C145.759 14.7393 146.515 14.3145 147.493 14.3145C147.81 14.3145 148.05 14.3555 148.214 14.4375V15.9492ZM151.483 24H149.857V14.4902H151.483V24ZM149.726 11.9678C149.726 11.7041 149.805 11.4814 149.963 11.2998C150.127 11.1182 150.367 11.0273 150.684 11.0273C151 11.0273 151.24 11.1182 151.404 11.2998C151.568 11.4814 151.65 11.7041 151.65 11.9678C151.65 12.2314 151.568 12.4512 151.404 12.627C151.24 12.8027 151 12.8906 150.684 12.8906C150.367 12.8906 150.127 12.8027 149.963 12.627C149.805 12.4512 149.726 12.2314 149.726 11.9678ZM159.965 24C159.871 23.8125 159.795 23.4785 159.736 22.998C158.98 23.7832 158.078 24.1758 157.029 24.1758C156.092 24.1758 155.321 23.9121 154.718 23.3848C154.12 22.8516 153.821 22.1777 153.821 21.3633C153.821 20.373 154.196 19.6055 154.946 19.0605C155.702 18.5098 156.763 18.2344 158.128 18.2344H159.71V17.4873C159.71 16.9189 159.54 16.4678 159.2 16.1338C158.86 15.7939 158.359 15.624 157.697 15.624C157.117 15.624 156.631 15.7705 156.238 16.0635C155.846 16.3564 155.649 16.7109 155.649 17.127H154.015C154.015 16.6523 154.182 16.1953 154.516 15.7559C154.855 15.3105 155.312 14.959 155.887 14.7012C156.467 14.4434 157.103 14.3145 157.794 14.3145C158.89 14.3145 159.748 14.5898 160.369 15.1406C160.99 15.6855 161.312 16.4385 161.336 17.3994V21.7764C161.336 22.6494 161.447 23.3438 161.67 23.8594V24H159.965ZM157.267 22.7607C157.776 22.7607 158.26 22.6289 158.717 22.3652C159.174 22.1016 159.505 21.7588 159.71 21.3369V19.3857H158.436C156.443 19.3857 155.447 19.9688 155.447 21.1348C155.447 21.6445 155.617 22.043 155.957 22.3301C156.297 22.6172 156.733 22.7607 157.267 22.7607ZM165.651 24H164.025V10.5H165.651V24Z" fill="black"/>
<path d="M12 28C6.477 28 2 23.523 2 18C2 12.477 6.477 8 12 8C17.523 8 22 12.477 22 18C22 23.523 17.523 28 12 28ZM11.003 22L18.073 14.929L16.659 13.515L11.003 19.172L8.174 16.343L6.76 17.757L11.003 22Z" fill="#4FBA5B"/>
</svg>
