<svg width="153" height="30" viewBox="0 0 153 30" fill="none" xmlns="http://www.w3.org/2000/svg">
<path d="M36.9258 23.543H33.7266V7.95312C33.7266 7.41146 33.6842 7.06445 33.5996 6.91211C33.5319 6.75977 33.4049 6.64974 33.2188 6.58203C32.9479 6.48047 32.694 6.37891 32.457 6.27734C32.237 6.15885 32.127 5.96419 32.127 5.69336C32.127 5.11784 32.4824 4.83008 33.1934 4.83008H35.8848C36.5788 4.83008 36.9258 5.10938 36.9258 5.66797V23.543ZM42.6387 23.543H39.541V13.3613C39.541 12.8197 39.5072 12.4727 39.4395 12.3203C39.3887 12.151 39.2956 12.041 39.1602 11.9902C38.8555 11.8717 38.61 11.7617 38.4238 11.6602C38.2376 11.5586 38.1445 11.3555 38.1445 11.0508C38.1445 10.5091 38.5 10.2383 39.2109 10.2383H41.5469C42.2747 10.2383 42.6387 10.543 42.6387 11.1523V11.6094C42.8249 11.4062 43.0449 11.2116 43.2988 11.0254C44.0944 10.3652 45.0508 10.0352 46.168 10.0352C47.3867 10.0352 48.3685 10.4499 49.1133 11.2793C49.875 12.1087 50.2559 13.5052 50.2559 15.4688V23.543H47.1074V15.418C47.1074 14.2331 46.9551 13.446 46.6504 13.0566C46.3457 12.6504 46.0072 12.4473 45.6348 12.4473C44.873 12.4642 44.1198 12.9466 43.375 13.8945C43.0872 14.2669 42.8418 14.6901 42.6387 15.1641V23.543ZM54.75 16.9668C54.75 18.4902 55.0293 19.6497 55.5879 20.4453C56.1465 21.224 56.7305 21.6133 57.3398 21.6133C58.0169 21.6133 58.6009 21.2578 59.0918 20.5469C59.5827 19.8359 59.8281 18.7272 59.8281 17.2207V15.5957C59.8281 14.4616 59.5827 13.5983 59.0918 13.0059C58.6009 12.4134 57.9831 12.1172 57.2383 12.1172C56.6289 12.1172 56.0618 12.515 55.5371 13.3105C55.0124 14.0892 54.75 15.3079 54.75 16.9668ZM59.8535 22.7559C59.1595 23.3991 58.2878 23.7207 57.2383 23.7207C55.3594 23.7207 53.946 23.069 52.998 21.7656C52.0501 20.4622 51.5762 18.8372 51.5762 16.8906C51.5762 14.7917 52.0501 13.1074 52.998 11.8379C53.946 10.5514 55.2832 9.9082 57.0098 9.9082C58.1777 9.9082 59.1257 10.1706 59.8535 10.6953V7.36914C59.8535 6.86133 59.8112 6.51432 59.7266 6.32812C59.6419 6.125 59.5488 6.00651 59.4473 5.97266C59.1595 5.90495 58.931 5.82031 58.7617 5.71875C58.6094 5.60026 58.5332 5.38021 58.5332 5.05859C58.5332 4.51693 58.8971 4.24609 59.625 4.24609H61.8848C62.6126 4.24609 62.9766 4.52539 62.9766 5.08398V23.543H59.8535V22.7559ZM68.8926 23.543H65.7188V13.3613C65.7188 12.8366 65.6764 12.4811 65.5918 12.2949C65.5072 12.1087 65.4141 11.9902 65.3125 11.9395C65.0078 11.8548 64.7793 11.7533 64.627 11.6348C64.4746 11.5163 64.3984 11.3385 64.3984 11.1016C64.3984 10.526 64.7624 10.2383 65.4902 10.2383H67.8008C68.5286 10.2383 68.8926 10.543 68.8926 11.1523V23.543ZM68.9941 6.30273C68.9941 6.8444 68.7995 7.3099 68.4102 7.69922C68.0378 8.07161 67.5807 8.25781 67.0391 8.25781C66.4974 8.25781 66.0404 8.07161 65.668 7.69922C65.2956 7.3099 65.1094 6.8444 65.1094 6.30273C65.1094 5.76107 65.2956 5.29557 65.668 4.90625C66.0404 4.5 66.4974 4.29688 67.0391 4.29688C67.5807 4.29688 68.0378 4.5 68.4102 4.90625C68.7995 5.29557 68.9941 5.76107 68.9941 6.30273ZM78.4141 22.6543C78.194 22.8236 77.8047 23.0436 77.2461 23.3145C76.6875 23.5853 75.9004 23.7207 74.8848 23.7207C73.6829 23.7207 72.6927 23.3737 71.9141 22.6797C71.1354 21.9688 70.7461 21.0632 70.7461 19.9629C70.7461 18.4733 71.4062 17.2799 72.7266 16.3828C74.0638 15.4857 75.6803 15.0371 77.5762 15.0371H78.3887V14.5039C78.3887 13.7253 78.1686 13.1159 77.7285 12.6758C77.2884 12.2188 76.7637 11.9902 76.1543 11.9902C75.6126 11.9902 75.1471 12.1341 74.7578 12.4219C74.3854 12.7096 74.1992 13.2682 74.1992 14.0977H70.8984C70.8984 12.7604 71.3809 11.7279 72.3457 11C73.3105 10.2721 74.6055 9.9082 76.2305 9.9082C77.957 9.9082 79.2689 10.3398 80.166 11.2031C81.0801 12.0495 81.5371 13.1921 81.5371 14.6309V23.543H78.4141V22.6543ZM78.3887 17.1953C77.0176 17.1615 75.9258 17.373 75.1133 17.8301C74.3008 18.2871 73.8945 18.9134 73.8945 19.709C73.8945 20.3861 74.0553 20.8516 74.377 21.1055C74.6986 21.3424 75.0625 21.4609 75.4688 21.4609C76.1797 21.4609 76.8398 21.1986 77.4492 20.6738C78.0755 20.1491 78.3887 19.5143 78.3887 18.7695V17.1953ZM95.0449 12.7012H97.5078C98.3203 12.7012 98.8789 12.5996 99.1836 12.3965C99.4883 12.1934 99.6406 11.8125 99.6406 11.2539C99.6406 10.9323 99.9792 10.7715 100.656 10.7715C101.333 10.7715 101.672 10.9323 101.672 11.2539V16.332C101.672 16.6198 101.333 16.7637 100.656 16.7637C99.9792 16.7637 99.6406 16.6198 99.6406 16.332C99.6406 15.7565 99.4798 15.3503 99.1582 15.1133C98.8366 14.8763 98.278 14.7578 97.4824 14.7578H95.0449V23.543H91.8457V7.95312C91.8457 7.41146 91.7865 7.05599 91.668 6.88672C91.5664 6.70052 91.4564 6.58203 91.3379 6.53125C91.084 6.46354 90.8639 6.37044 90.6777 6.25195C90.5085 6.11654 90.4238 5.90495 90.4238 5.61719C90.4238 5.09245 90.7201 4.83008 91.3125 4.83008H102.484L102.637 8.15625C102.637 8.69792 102.298 8.97721 101.621 8.99414C100.961 9.01107 100.572 8.75716 100.453 8.23242C100.318 7.75846 100.157 7.41992 99.9707 7.2168C99.7845 7.01367 99.3529 6.91211 98.6758 6.91211H95.959C95.3496 6.91211 95.0449 7.24219 95.0449 7.90234V12.7012ZM114.723 23.543H111.574V22.248L111.32 22.502C110.491 23.3145 109.424 23.7207 108.121 23.7207C106.953 23.7207 105.98 23.3145 105.201 22.502C104.423 21.6725 104.033 20.3438 104.033 18.5156V13.3359C104.033 12.8112 103.991 12.4642 103.906 12.2949C103.839 12.1257 103.762 12.0241 103.678 11.9902C103.407 11.8887 103.178 11.7871 102.992 11.6855C102.823 11.5671 102.738 11.3555 102.738 11.0508C102.738 10.5091 103.094 10.2383 103.805 10.2383H106.09C106.818 10.2383 107.182 10.5176 107.182 11.0762V18.3633C107.182 19.5482 107.334 20.3438 107.639 20.75C107.943 21.1393 108.316 21.334 108.756 21.334C109.568 21.334 110.313 20.9277 110.99 20.1152C111.21 19.8444 111.405 19.4889 111.574 19.0488V13.3613C111.574 12.8197 111.54 12.4642 111.473 12.2949C111.405 12.1257 111.278 11.9987 111.092 11.9141C110.838 11.8464 110.635 11.7533 110.482 11.6348C110.33 11.5163 110.254 11.3385 110.254 11.1016C110.254 10.526 110.618 10.2383 111.346 10.2383H113.631C114.359 10.2383 114.723 10.543 114.723 11.1523V23.543ZM120.156 23.543H117.059V13.3613C117.059 12.8197 117.025 12.4727 116.957 12.3203C116.906 12.151 116.813 12.041 116.678 11.9902C116.373 11.8717 116.128 11.7617 115.941 11.6602C115.755 11.5586 115.662 11.3555 115.662 11.0508C115.662 10.5091 116.018 10.2383 116.729 10.2383H119.064C119.792 10.2383 120.156 10.543 120.156 11.1523V11.6094C120.342 11.4062 120.562 11.2116 120.816 11.0254C121.612 10.3652 122.568 10.0352 123.686 10.0352C124.904 10.0352 125.886 10.4499 126.631 11.2793C127.393 12.1087 127.773 13.5052 127.773 15.4688V23.543H124.625V15.418C124.625 14.2331 124.473 13.446 124.168 13.0566C123.863 12.6504 123.525 12.4473 123.152 12.4473C122.391 12.4642 121.637 12.9466 120.893 13.8945C120.605 14.2669 120.359 14.6901 120.156 15.1641V23.543ZM132.268 16.9668C132.268 18.4902 132.547 19.6497 133.105 20.4453C133.664 21.224 134.248 21.6133 134.857 21.6133C135.535 21.6133 136.118 21.2578 136.609 20.5469C137.1 19.8359 137.346 18.7272 137.346 17.2207V15.5957C137.346 14.4616 137.1 13.5983 136.609 13.0059C136.118 12.4134 135.501 12.1172 134.756 12.1172C134.146 12.1172 133.579 12.515 133.055 13.3105C132.53 14.0892 132.268 15.3079 132.268 16.9668ZM137.371 22.7559C136.677 23.3991 135.805 23.7207 134.756 23.7207C132.877 23.7207 131.464 23.069 130.516 21.7656C129.568 20.4622 129.094 18.8372 129.094 16.8906C129.094 14.7917 129.568 13.1074 130.516 11.8379C131.464 10.5514 132.801 9.9082 134.527 9.9082C135.695 9.9082 136.643 10.1706 137.371 10.6953V7.36914C137.371 6.86133 137.329 6.51432 137.244 6.32812C137.16 6.125 137.066 6.00651 136.965 5.97266C136.677 5.90495 136.449 5.82031 136.279 5.71875C136.127 5.60026 136.051 5.38021 136.051 5.05859C136.051 4.51693 136.415 4.24609 137.143 4.24609H139.402C140.13 4.24609 140.494 4.52539 140.494 5.08398V23.543H137.371V22.7559ZM146.436 17.5762C145.2 17.153 144.201 16.6198 143.439 15.9766C142.695 15.3164 142.322 14.5208 142.322 13.5898C142.322 12.4557 142.729 11.5501 143.541 10.873C144.354 10.179 145.555 9.80664 147.146 9.75586C147.84 9.72201 148.526 9.78125 149.203 9.93359C149.897 10.069 150.574 10.2975 151.234 10.6191V13.6914C150.253 12.8451 149.457 12.3288 148.848 12.1426C148.255 11.9395 147.722 11.8464 147.248 11.8633C146.689 11.8633 146.241 11.9818 145.902 12.2188C145.581 12.4557 145.403 12.8197 145.369 13.3105C145.352 13.7337 145.589 14.123 146.08 14.4785C146.588 14.8171 147.299 15.1641 148.213 15.5195C149.584 16.0273 150.566 16.6029 151.158 17.2461C151.768 17.8893 152.072 18.6426 152.072 19.5059C152.072 20.8092 151.598 21.8418 150.65 22.6035C149.719 23.3483 148.408 23.7207 146.715 23.7207C145.885 23.7207 145.107 23.6107 144.379 23.3906C143.668 23.1536 143.135 22.8743 142.779 22.5527C142.407 22.2311 142.212 21.9434 142.195 21.6895C142.178 21.4186 142.229 21.1901 142.348 21.0039C142.602 20.6484 142.923 20.4622 143.312 20.4453C143.702 20.4115 144.066 20.5469 144.404 20.8516C144.709 21.0716 145.081 21.2578 145.521 21.4102C145.962 21.5456 146.359 21.6133 146.715 21.6133C147.544 21.5794 148.145 21.3594 148.518 20.9531C148.907 20.5469 149.051 20.0475 148.949 19.4551C148.915 19.1673 148.729 18.8626 148.391 18.541C148.052 18.2194 147.4 17.8978 146.436 17.5762Z" fill="black"/>
<path d="M2 23H22V25H2V23ZM4 15H6V22H4V15ZM9 15H11V22H9V15ZM13 15H15V22H13V15ZM18 15H20V22H18V15ZM2 10L12 5L22 10V14H2V10ZM12 11C12.2652 11 12.5196 10.8946 12.7071 10.7071C12.8946 10.5196 13 10.2652 13 10C13 9.73478 12.8946 9.48043 12.7071 9.29289C12.5196 9.10536 12.2652 9 12 9C11.7348 9 11.4804 9.10536 11.2929 9.29289C11.1054 9.48043 11 9.73478 11 10C11 10.2652 11.1054 10.5196 11.2929 10.7071C11.4804 10.8946 11.7348 11 12 11Z" fill="black"/>
</svg>
